<svg xmlns="http://www.w3.org/2000/svg" width="94.925" height="94.926" viewBox="0 0 94.925 94.926">
  <path id="Контур_1"  d="M55.931,47.463,94.306,9.09a2.118,2.118,0,0,0,0-2.994L88.833.62a2.12,2.12,0,0,0-3,0L47.463,38.994,9.089.62a2.18,2.18,0,0,0-2.995,0L.622,6.1a2.117,2.117,0,0,0,0,2.994L39,47.463.622,85.836a2.117,2.117,0,0,0,0,2.994L6.1,94.306a2.118,2.118,0,0,0,2.995,0L47.464,55.932,85.838,94.306a2.12,2.12,0,0,0,3,0l5.473-5.476a2.118,2.118,0,0,0,0-2.994Z" transform="translate(-0.002)" fill="rgb(198,0,124)"/>
</svg>
